<?xml version="1.0" ?>
<!DOCTYPE svg  PUBLIC '-//W3C//DTD SVG 1.1//EN'  'http://www.w3.org/Graphics/SVG/1.1/DTD/svg11.dtd'>
<svg 
  enable-background="new 0 0 32 32"
  style="fill:#FFF"
  height="32px"
  id="Layer_1"
  version="1.1"
  viewBox="0 0 32 32"
  width="32px"
  xml:space="preserve"
  xmlns="http://www.w3.org/2000/svg"
  xmlns:xlink="http://www.w3.org/1999/xlink">
  <g>
    <polyline
      fill="none"
      points="   649,137.999 675,137.999 675,155.999 661,155.999  "
      stroke="#FFFFFF"
      stroke-linecap="round"
      stroke-linejoin="round"
      stroke-miterlimit="10"
      stroke-width="2"
    />
    <polyline 
      fill="none"
      points="   653,155.999 649,155.999 649,141.999  "
      stroke="#FFFFFF"
      stroke-linecap="round"
      stroke-linejoin="round"
      stroke-miterlimit="10"
      stroke-width="2"
    />
    <polyline 
      fill="none"
      points="   661,156 653,162 653,156  "
      stroke="#FFFFFF"
      stroke-linecap="round"
      stroke-linejoin="round"
      stroke-miterlimit="10"
      stroke-width="2"
    />
  </g>
  <g>
    <path 
      d="M16.707,6.293C16.516,6.102,16.26,6,16,6c-0.129,0-0.259,0.024-0.383,0.076C15.244,6.23,15,6.596,15,7v22   c0,0.552,0.448,1,1,1s1-0.448,1-1V9.414l7.293,7.293c0.391,0.391,1.023,0.391,1.414,0s0.391-1.023,0-1.414L16.707,6.293z"/><path d="M12,10c-0.256,0-0.512,0.098-0.707,0.293l-5,5c-0.391,0.391-0.391,1.024,0,1.414c0.391,0.39,1.023,0.391,1.414-0.001l5-5   c0.391-0.391,0.391-1.023,0-1.414C12.512,10.098,12.256,10,12,10z"
    />
    <path
      d="M3,11c0.553,0,1-0.447,1-1V4h24v6c0,0.553,0.448,1,1,1s1-0.447,1-1V3c0-0.553-0.448-1-1-1H3C2.447,2,2,2.447,2,3v7   C2,10.553,2.447,11,3,11z"
    />
  </g>
</svg>